<svg xmlns="http://www.w3.org/2000/svg" viewBox="-37 -36 74 109">
  <path fill="#c00" stroke="#c00" stroke-miterlimit="6"
        d="M0,69 l-8,-46 c3,-1 5,-4 5,-7
           v-13 h-10
           c-10,0 -10,10 -1,7 c-5,9 -16,1 -10,-5 c1,-1 2,-3 0,-3
           h-3 c-4,6 -6,-1 -8,-2 c2,-1 4,-8 8,-2 h3
           c2,0 1,-2 0,-3 c-6,-6 5,-14 10,-5 c-9,-3 -9,7 1,7
           h10 v-15
           c0,-5 -5,-4 -3,0 c1,3 -5,4 -5,-2
           c0,-6 9,-9 11,-14 c2,5 11,8 11,14
           c0,6 -6,5 -5,2 c2,-4 -3,-5 -3,0
           v15 h10
           c10,0 10,-10 1,-7 c5,-9 16,-1 10,5 c-1,1 -2,3 0,3
           h3 c4,-6 6,1 8,2 c-2,1 -4,8 -8,2 h-3
           c-2,0 -1,2 0,3 c6,6 -5,14 -10,5 c9,3 9,-7 -1,-7
           h-10 v13
           c0,3 2,6 5,7 z" />

</svg>